<?xml version="1.0" standalone="no"?>
<!DOCTYPE svg PUBLIC "-//W3C//DTD SVG 20010904//EN"
 "http://www.w3.org/TR/2001/REC-SVG-20010904/DTD/svg10.dtd">
<svg version="1.0" xmlns="http://www.w3.org/2000/svg"
 width="96.000000pt" height="96.000000pt" viewBox="0 0 96.000000 96.000000"
 preserveAspectRatio="xMidYMid meet">
<metadata>
Created by potrace 1.10, written by Peter Selinger 2001-2011
</metadata>
<g transform="translate(0.000000,96.000000) scale(0.100000,-0.100000)"
fill="#000000" stroke="none">
<path d="M546 953 c-11 -11 -6 -23 9 -23 8 0 15 4 15 9 0 13 -16 22 -24 14z"/>
<path d="M637 946 c-3 -8 1 -17 10 -20 20 -8 25 -3 17 18 -8 20 -20 21 -27 2z"/>
<path d="M710 945 c7 -9 15 -13 17 -11 7 7 -7 26 -19 26 -6 0 -6 -6 2 -15z"/>
<path d="M65 930 c13 -15 22 -17 29 -10 12 12 -8 30 -33 30 -11 0 -10 -5 4
-20z"/>
<path d="M951 934 c0 -11 3 -14 6 -6 3 7 2 16 -1 19 -3 4 -6 -2 -5 -13z"/>
<path d="M365 930 c-17 -6 -15 -8 10 -13 35 -6 40 -4 23 10 -7 6 -22 7 -33 3z"/>
<path d="M505 911 c-3 -5 -2 -16 1 -25 7 -19 44 -22 44 -3 0 16 -37 39 -45 28z"/>
<path d="M790 910 c0 -5 5 -10 11 -10 5 0 7 5 4 10 -3 6 -8 10 -11 10 -2 0 -4
-4 -4 -10z"/>
<path d="M686 901 c-3 -4 3 -15 14 -24 15 -12 21 -13 29 -3 8 10 5 16 -14 24
-13 6 -26 8 -29 3z"/>
<path d="M104 864 c-4 -20 -2 -103 3 -183 9 -131 8 -152 -8 -201 -36 -107 -18
-215 40 -251 37 -22 116 -26 128 -5 4 7 15 15 23 18 9 3 3 10 -19 21 -41 20
-38 20 -38 3 0 -9 6 -12 16 -8 14 5 14 3 2 -11 -15 -19 -67 -24 -55 -5 5 8 2
9 -9 5 -9 -3 -19 -2 -22 4 -4 5 -10 7 -15 4 -13 -8 -40 60 -44 109 -4 48 38
186 56 186 5 0 8 5 8 11 0 6 -8 8 -19 4 -25 -8 -32 27 -14 71 7 17 9 34 6 38
-4 3 -1 6 5 6 6 0 18 -16 27 -35 16 -32 18 -33 39 -20 12 8 34 12 49 10 15 -3
27 -1 27 4 0 18 -21 23 -50 11 -16 -6 -37 -10 -47 -8 -11 2 2 10 34 21 28 9
54 17 57 17 9 0 36 -46 45 -78 8 -28 7 -30 -12 -26 -11 2 -23 7 -26 12 -3 5
-17 5 -31 1 -28 -8 -27 -9 14 -14 16 -2 39 -14 52 -26 13 -12 24 -18 24 -13 0
5 7 0 15 -10 12 -16 15 -17 15 -4 0 9 -4 18 -9 20 -5 2 -26 48 -46 103 -20 55
-29 93 -21 85 8 -8 25 -46 39 -85 17 -45 26 -61 26 -44 1 14 -3 29 -8 35 -5 5
-12 19 -16 32 -5 17 -2 22 13 22 11 0 27 -10 36 -22 16 -23 16 -23 10 7 -5 29
-5 29 10 11 9 -11 16 -26 16 -33 0 -7 5 -13 10 -13 6 0 10 7 10 15 0 8 -5 15
-11 15 -6 0 -9 6 -7 12 5 13 48 15 92 4 19 -5 30 -1 43 13 12 14 20 17 29 10
12 -10 11 -27 -8 -90 -9 -34 -12 -35 -34 -25 -17 8 -26 22 -30 49 -6 31 -11
37 -31 37 -16 0 -27 -8 -33 -26 -16 -42 -18 -103 -3 -115 7 -7 13 -17 13 -23
0 -7 -4 -6 -9 2 -7 11 -10 10 -15 -3 -10 -26 -7 -73 5 -81 7 -4 9 0 5 13 -3
10 1 28 9 39 17 22 20 105 4 121 -8 8 -8 17 0 32 17 31 31 26 25 -8 -5 -23 -2
-32 15 -41 12 -6 19 -15 16 -21 -4 -5 -2 -9 4 -9 6 0 8 -6 5 -14 -6 -17 12
-56 26 -56 6 0 6 9 0 25 -5 14 -6 33 -3 42 6 15 8 14 14 -7 6 -23 7 -23 8 -3
1 12 11 43 23 70 12 26 20 52 19 57 -4 16 62 76 83 76 12 0 28 5 36 10 12 7 8
10 -15 10 l-30 1 25 14 c14 8 39 15 55 16 l30 1 -33 9 c-18 5 -30 14 -27 19 8
14 61 40 67 34 3 -2 11 2 18 11 10 12 10 15 -3 15 -33 0 -68 -21 -138 -85 -41
-36 -75 -61 -77 -56 -4 11 -34 -3 -61 -29 -24 -23 -150 -19 -168 6 -7 10 -13
13 -13 7 0 -6 -6 -13 -14 -16 -8 -3 -13 1 -12 11 0 9 -6 17 -13 17 -8 0 -47
33 -85 73 -49 50 -81 74 -103 78 -30 6 -32 5 -39 -32z m36 5 c-12 -8 -9 -10
13 -6 18 3 27 0 27 -9 0 -8 5 -14 11 -14 6 0 9 -6 6 -14 -4 -10 0 -12 15 -8
14 3 19 1 14 -6 -3 -6 6 -20 20 -31 30 -24 21 -27 -16 -6 -30 17 -50 19 -50 4
0 -5 4 -7 10 -4 13 8 78 -37 73 -51 -2 -6 6 -14 19 -17 12 -4 19 -9 16 -12 -9
-9 -109 26 -103 35 3 5 0 12 -6 16 -7 4 -19 -3 -30 -17 -10 -13 -21 -21 -25
-17 -4 4 -1 14 6 23 8 10 9 15 1 15 -6 0 -10 3 -10 8 1 4 0 9 -1 12 -1 3 -3
17 -4 33 -2 21 3 27 19 27 17 1 16 3 -8 16 -29 16 -28 34 1 34 15 0 15 -2 2
-11z m110 -176 c11 -4 9 -7 -9 -14 -25 -10 -94 8 -85 22 4 8 64 2 94 -8z m100
-143 c0 -5 -2 -10 -4 -10 -3 0 -8 5 -11 10 -3 6 -1 10 4 10 6 0 11 -4 11 -10z"/>
<path d="M153 808 c4 -10 2 -18 -3 -18 -6 0 -10 -4 -10 -10 0 -16 20 -12 27 6
3 8 0 21 -7 27 -10 10 -12 8 -7 -5z"/>
<path d="M612 891 c2 -7 7 -12 11 -12 12 1 9 15 -3 20 -7 2 -11 -2 -8 -8z"/>
<path d="M910 885 c0 -8 2 -15 4 -15 2 0 6 7 10 15 3 8 1 15 -4 15 -6 0 -10
-7 -10 -15z"/>
<path d="M350 840 c0 -11 9 -24 21 -30 31 -17 33 -5 5 23 -23 24 -26 24 -26 7z"/>
<path d="M265 840 c3 -5 8 -10 11 -10 2 0 4 5 4 10 0 6 -5 10 -11 10 -5 0 -7
-4 -4 -10z"/>
<path d="M597 835 c-12 -28 -8 -55 7 -55 22 0 25 12 11 44 -10 23 -13 25 -18
11z"/>
<path d="M650 841 c0 -6 5 -13 10 -16 6 -3 10 1 10 9 0 9 -4 16 -10 16 -5 0
-10 -4 -10 -9z"/>
<path d="M836 814 c-10 -27 -7 -89 4 -78 14 14 28 66 23 82 -6 17 -20 15 -27
-4z"/>
<path d="M900 820 c0 -5 5 -10 10 -10 6 0 10 5 10 10 0 6 -4 10 -10 10 -5 0
-10 -4 -10 -10z"/>
<path d="M794 775 c3 -23 12 -26 13 -5 1 11 -2 20 -7 20 -4 0 -7 -7 -6 -15z"/>
<path d="M905 780 c-3 -5 -1 -10 4 -10 6 0 11 5 11 10 0 6 -2 10 -4 10 -3 0
-8 -4 -11 -10z"/>
<path d="M435 770 c3 -5 11 -10 16 -10 6 0 7 5 4 10 -3 6 -11 10 -16 10 -6 0
-7 -4 -4 -10z"/>
<path d="M763 738 c-10 -17 -13 -38 -4 -38 4 0 7 -8 7 -19 0 -16 -5 -17 -31
-10 -40 12 -43 11 -21 -6 25 -19 16 -28 -17 -16 -40 15 -64 3 -82 -42 -28 -68
-28 -74 -2 -34 24 37 54 66 70 67 5 0 6 -4 3 -9 -3 -4 6 -6 19 -3 18 3 25 0
25 -12 0 -9 7 -16 15 -16 8 0 15 5 15 10 0 6 -4 10 -10 10 -5 0 -10 8 -10 18
0 13 7 18 21 18 32 -1 47 28 25 49 -9 10 -15 24 -12 31 7 17 0 18 -11 2z"/>
<path d="M898 738 c-26 -9 -40 -38 -18 -38 6 0 10 7 10 15 0 8 6 15 14 15 8 0
18 5 21 10 3 6 5 10 3 9 -2 0 -15 -5 -30 -11z"/>
<path d="M820 700 c0 -14 -3 -35 -6 -47 -4 -13 -2 -23 4 -23 13 0 24 72 12 84
-7 7 -10 1 -10 -14z"/>
<path d="M951 684 c0 -11 3 -14 6 -6 3 7 2 16 -1 19 -3 4 -6 -2 -5 -13z"/>
<path d="M860 655 c0 -8 7 -15 15 -15 8 0 15 4 15 9 0 5 -7 11 -15 15 -9 3
-15 0 -15 -9z"/>
<path d="M776 606 c-4 -20 -13 -36 -21 -36 -25 0 -45 12 -45 28 0 11 -17 0
-47 -31 -27 -25 -51 -46 -55 -47 -5 0 -14 0 -22 0 -10 0 -14 -9 -12 -27 2 -16
5 -28 8 -28 3 0 17 15 32 33 15 17 35 32 44 32 12 0 13 3 5 8 -9 6 -8 12 7 24
17 16 21 16 54 0 38 -19 101 -105 92 -128 -3 -7 2 -18 10 -24 12 -11 14 -6 14
25 0 25 -8 47 -26 68 -21 25 -24 36 -19 68 4 21 2 46 -3 55 -8 13 -11 10 -16
-20z"/>
<path d="M145 620 c-4 -6 -5 -12 -4 -13 2 -2 13 -9 23 -17 18 -14 19 -14 6 10
-17 33 -17 33 -25 20z"/>
<path d="M391 594 c0 -11 3 -14 6 -6 3 7 2 16 -1 19 -3 4 -6 -2 -5 -13z"/>
<path d="M645 590 c-10 -11 -14 -20 -8 -20 5 0 18 9 28 20 10 11 14 20 8 20
-5 0 -18 -9 -28 -20z"/>
<path d="M911 586 c-12 -14 -5 -26 16 -26 15 0 18 26 4 34 -5 3 -14 0 -20 -8z"/>
<path d="M410 540 c-2 -19 -3 -42 -4 -50 -1 -8 -4 -19 -7 -25 -4 -5 -5 -19 -2
-30 16 -81 9 -105 -34 -119 -12 -4 -26 -13 -32 -20 -12 -14 -51 -10 -51 5 0 5
-4 9 -10 9 -5 0 -10 -6 -10 -14 0 -15 48 -28 65 -18 5 4 22 7 37 7 61 1 86 67
69 176 -5 27 -4 55 2 65 6 11 6 15 -1 10 -6 -3 -12 4 -15 16 -3 17 -5 14 -7
-12z"/>
<path d="M255 551 c-3 -6 3 -15 14 -20 29 -16 38 -13 15 4 -10 8 -14 15 -7 15
7 0 28 -16 47 -35 39 -38 64 -47 44 -15 -7 10 -14 17 -17 15 -2 -3 -17 7 -33
20 -31 26 -53 32 -63 16z"/>
<path d="M846 525 c-4 -10 3 -20 19 -27 16 -7 25 -19 25 -34 0 -19 26 -41 37
-30 6 6 -57 106 -67 106 -4 0 -11 -7 -14 -15z"/>
<path d="M20 476 c0 -9 7 -16 16 -16 17 0 14 22 -4 28 -7 2 -12 -3 -12 -12z"/>
<path d="M576 436 c-38 -46 -46 -85 -21 -110 8 -8 15 -19 15 -24 0 -16 35 -20
53 -7 9 7 13 15 9 19 -4 4 -1 6 7 4 8 -1 29 17 48 41 32 42 38 69 14 64 -6 -2
-11 2 -11 7 0 10 -58 50 -72 50 -4 0 -23 -20 -42 -44z m82 -2 c29 -20 28 -48
-3 -72 -31 -24 -63 -18 -78 15 -9 21 -7 27 18 49 33 28 34 29 63 8z m-83 -93
c-6 -5 -25 10 -25 20 0 5 6 4 14 -3 8 -7 12 -15 11 -17z"/>
<path d="M610 400 c0 -33 14 -40 28 -12 12 21 5 42 -14 42 -9 0 -14 -11 -14
-30z"/>
<path d="M329 453 c-13 -15 -12 -15 9 -4 23 12 28 21 13 21 -5 0 -15 -7 -22
-17z"/>
<path d="M264 436 c-3 -8 -15 -11 -30 -8 -13 2 -24 0 -24 -6 0 -14 87 -92 104
-92 8 0 16 -5 18 -10 2 -6 12 -4 26 6 27 19 20 36 -11 25 -58 -22 -112 44 -67
81 18 15 19 18 6 18 -9 0 -19 -6 -22 -14z"/>
<path d="M10 420 c0 -5 5 -10 10 -10 6 0 10 5 10 10 0 6 -4 10 -10 10 -5 0
-10 -4 -10 -10z"/>
<path d="M307 423 c-15 -14 -7 -43 12 -43 14 0 17 6 13 25 -4 25 -13 31 -25
18z"/>
<path d="M377 409 c4 -13 8 -18 11 -10 2 7 -1 18 -6 23 -8 8 -9 4 -5 -13z"/>
<path d="M785 400 c-3 -5 -1 -10 4 -10 6 0 11 5 11 10 0 6 -2 10 -4 10 -3 0
-8 -4 -11 -10z"/>
<path d="M872 385 c-9 -19 -9 -25 0 -25 6 0 20 -8 31 -17 19 -17 20 -17 15 3
-4 17 -1 20 19 16 18 -3 22 -1 17 12 -3 9 -17 16 -30 16 -13 0 -24 5 -24 10 0
19 -17 10 -28 -15z"/>
<path d="M20 370 c0 -5 10 -15 23 -21 22 -12 22 -12 3 10 -21 23 -26 26 -26
11z"/>
<path d="M820 371 c-8 -6 -18 -7 -22 -5 -4 3 -8 1 -8 -5 0 -19 15 -18 34 0 21
21 20 24 -4 10z"/>
<path d="M0 354 c0 -12 9 -42 20 -67 23 -52 36 -112 45 -212 7 -81 14 -97 16
-34 3 93 -7 158 -37 239 -30 81 -44 104 -44 74z"/>
<path d="M840 340 c0 -6 -7 -10 -16 -10 -9 0 -21 -13 -27 -30 -6 -17 -23 -34
-39 -41 -24 -10 -26 -14 -16 -27 12 -13 11 -14 -9 -1 -12 7 -18 16 -13 19 23
14 -40 53 -73 45 -14 -4 -23 -14 -24 -26 -1 -15 3 -19 13 -15 9 3 12 1 9 -4
-3 -6 4 -10 17 -10 17 0 19 -3 9 -9 -11 -7 -11 -10 0 -17 7 -4 14 -3 17 4 4
14 32 16 32 3 0 -5 7 -12 16 -15 19 -7 104 78 104 105 0 11 5 19 12 19 15 0
88 -77 88 -93 0 -7 5 -19 10 -27 8 -11 10 -1 8 37 -1 29 -5 50 -10 47 -4 -3
-8 -1 -8 3 0 8 -49 36 -82 47 -10 3 -18 1 -18 -4z m-165 -68 c-3 -3 -11 0 -18
7 -9 10 -8 11 6 5 10 -3 15 -9 12 -12z m30 -12 c-3 -5 -16 -10 -28 -9 -21 0
-21 1 -2 9 28 12 37 12 30 0z"/>
<path d="M260 330 c0 -6 7 -10 15 -10 8 0 15 2 15 4 0 2 -7 6 -15 10 -8 3 -15
1 -15 -4z"/>
<path d="M225 300 c-3 -6 1 -7 9 -4 18 7 21 14 7 14 -6 0 -13 -4 -16 -10z"/>
<path d="M430 279 c0 -11 5 -17 10 -14 6 3 10 13 10 21 0 8 -4 14 -10 14 -5 0
-10 -9 -10 -21z"/>
<path d="M401 262 c-14 -26 -7 -42 10 -25 6 6 9 19 7 29 -3 17 -5 17 -17 -4z"/>
<path d="M325 231 c-9 -16 9 -20 23 -5 10 12 10 14 -2 14 -8 0 -17 -4 -21 -9z"/>
<path d="M431 222 c-1 -18 -5 -22 -20 -17 -48 15 -107 -29 -81 -60 7 -8 9 -18
7 -22 -3 -5 9 -10 26 -11 18 -1 39 -4 47 -7 8 -2 24 8 34 22 18 24 18 27 2 38
-12 10 -13 14 -4 18 7 2 21 -6 30 -18 17 -22 16 -24 -9 -49 l-26 -26 27 0 c15
0 25 4 22 9 -3 5 11 3 30 -4 31 -10 41 -10 68 4 25 13 28 16 12 19 -10 2 -22
-2 -26 -8 -14 -22 -65 2 -68 33 -2 15 -15 36 -30 48 -15 11 -30 28 -34 37 -5
13 -7 12 -7 -6z m-11 -63 c0 -10 -5 -21 -12 -25 -7 -4 -8 -3 -4 4 7 11 -7 16
-41 15 -18 -1 -16 7 4 22 22 16 53 7 53 -16z"/>
<path d="M117 200 c-12 -32 -15 -60 -6 -60 5 0 9 5 9 10 0 6 8 10 18 10 11 0
13 3 6 8 -7 4 -14 16 -16 27 -4 16 -6 17 -11 5z"/>
<path d="M510 200 c0 -5 5 -10 10 -10 6 0 10 5 10 10 0 6 -4 10 -10 10 -5 0
-10 -4 -10 -10z"/>
<path d="M290 185 c-7 -9 -11 -17 -9 -20 3 -2 10 5 17 15 14 24 10 26 -8 5z"/>
<path d="M121 131 c-8 -5 -9 -11 -3 -15 5 -3 15 1 22 9 14 16 3 20 -19 6z"/>
<path d="M158 109 c-10 -5 -23 -19 -29 -31 -10 -18 -6 -17 25 7 20 15 36 29
36 31 0 7 -14 4 -32 -7z"/>
<path d="M259 103 c-13 -17 -13 -17 6 -3 11 8 22 16 24 17 2 2 0 3 -6 3 -6 0
-17 -8 -24 -17z"/>
<path d="M179 83 c-13 -16 -12 -17 4 -4 9 7 17 15 17 17 0 8 -8 3 -21 -13z"/>
<path d="M203 74 c-19 -9 -30 -21 -26 -27 5 -8 8 -7 11 1 2 7 9 12 17 12 7 0
18 7 25 15 15 19 13 18 -27 -1z"/>
<path d="M209 34 l-24 -26 27 12 c15 7 29 19 32 26 8 22 -8 16 -35 -12z"/>
<path d="M660 42 c0 -10 22 -32 32 -32 15 0 8 15 -12 28 -11 7 -20 9 -20 4z"/>
<path d="M625 30 c3 -5 11 -10 16 -10 6 0 7 5 4 10 -3 6 -11 10 -16 10 -6 0
-7 -4 -4 -10z"/>
<path d="M495 10 c-3 -5 -1 -10 4 -10 6 0 11 5 11 10 0 6 -2 10 -4 10 -3 0 -8
-4 -11 -10z"/>
</g>
</svg>
